<svg xmlns="http://www.w3.org/2000/svg" xmlns:xlink="http://www.w3.org/1999/xlink" width="30" height="30" viewBox="0 0 30 30">
  <defs>
    <clipPath id="clip-path">
      <rect id="Rectangle_71" data-name="Rectangle 71" width="16" height="16" transform="translate(1133 122)" fill="none" stroke="#707070" stroke-width="1"/>
    </clipPath>
  </defs>
  <g id="Group_71" data-name="Group 71" transform="translate(-1209 -9)">
    <g id="Rectangle_44" data-name="Rectangle 44" transform="translate(1209 9)" fill="#fff" stroke="#e9e9e9" stroke-width="1">
      <rect width="30" height="30" rx="9" stroke="none"/>
      <rect x="0.5" y="0.5" width="29" height="29" rx="8.5" fill="none"/>
    </g>
    <g id="Mask_Group_20" data-name="Mask Group 20" transform="translate(83 -106)" clip-path="url(#clip-path)">
      <g id="Group_4605" data-name="Group 4605" transform="translate(1134.255 123.242)">
        <g id="Group_4602" data-name="Group 4602">
          <path id="Path_3770" data-name="Path 3770" d="M584.971,228H571.5v1.283h1.426v7.911a1.927,1.927,0,0,0,1.925,1.925h6.771a1.926,1.926,0,0,0,1.925-1.925v-7.911h1.426Zm-2.708,9.195a.642.642,0,0,1-.642.642H574.85a.642.642,0,0,1-.642-.642v-7.912h8.054Z" transform="translate(-571.5 -225.791)"/>
          <rect id="Rectangle_1199" data-name="Rectangle 1199" width="5.773" height="1.283" transform="translate(3.849)"/>
          <rect id="Rectangle_1200" data-name="Rectangle 1200" width="1.283" height="4.063" transform="translate(4.704 5.631)" fill="#0a64f9"/>
          <rect id="Rectangle_1201" data-name="Rectangle 1201" width="1.283" height="4.063" transform="translate(7.484 5.631)" fill="#0a64f9"/>
        </g>
      </g>
    </g>
  </g>
</svg>
