<svg xmlns="http://www.w3.org/2000/svg" xmlns:xlink="http://www.w3.org/1999/xlink" width="24" height="24" viewBox="0 0 24 24">
  <defs>
    <clipPath id="clip-path">
      <rect id="Rectangle_3768" data-name="Rectangle 3768" width="24" height="24" transform="translate(60 479)" fill="none" stroke="#9e9e9e" stroke-width="1"/>
    </clipPath>
  </defs>
  <g id="Mask_Group_4734" data-name="Mask Group 4734" transform="translate(-60 -479)" clip-path="url(#clip-path)">
    <g id="Report" transform="translate(8.6 462.268)">
      <path id="Path_8211" data-name="Path 8211" d="M70.8,27.4v7.1a2.96,2.96,0,0,1-2.96,2.96H58.96A2.96,2.96,0,0,1,56,34.5V22.96A2.96,2.96,0,0,1,58.96,20h7.654a2.96,2.96,0,0,1,2.093.867l1.226,1.226a2.96,2.96,0,0,1,.867,2.093v.254H67.84a1.48,1.48,0,0,1-1.48-1.48V20" fill="none" stroke="#9e9e9e" stroke-linecap="round" stroke-linejoin="round" stroke-width="1.5"/>
      <line id="Line_790" data-name="Line 790" x2="8" transform="translate(59.4 33.732)" fill="none" stroke="#9e9e9e" stroke-linecap="round" stroke-linejoin="round" stroke-width="1.5"/>
      <line id="Line_791" data-name="Line 791" y2="2" transform="translate(60.4 31.732)" fill="none" stroke="#9e9e9e" stroke-linecap="round" stroke-linejoin="round" stroke-width="1.5"/>
      <line id="Line_792" data-name="Line 792" y2="4" transform="translate(63.4 29.732)" fill="none" stroke="#9e9e9e" stroke-linecap="round" stroke-linejoin="round" stroke-width="1.5"/>
      <line id="Line_793" data-name="Line 793" y2="6" transform="translate(66.4 27.732)" fill="none" stroke="#9e9e9e" stroke-linecap="round" stroke-linejoin="round" stroke-width="1.5"/>
      <line id="Line_794" data-name="Line 794" x2="2" transform="translate(59.4 24.732)" fill="none" stroke="#9e9e9e" stroke-linecap="round" stroke-linejoin="round" stroke-width="1.5"/>
    </g>
  </g>
</svg>
