<svg xmlns="http://www.w3.org/2000/svg" xmlns:xlink="http://www.w3.org/1999/xlink" width="30" height="30" viewBox="0 0 30 30">
  <defs>
    <clipPath id="clip-path">
      <rect id="Rectangle_71" data-name="Rectangle 71" width="18" height="18" transform="translate(1133 122)" fill="none" stroke="#707070" stroke-width="1"/>
    </clipPath>
  </defs>
  <g id="sdfdf" transform="translate(-1209 -9)">
    <rect id="Rectangle_3213" data-name="Rectangle 3213" width="30" height="30" rx="4" transform="translate(1209 9)" fill="#fff2f2"/>
    <g id="Mask_Group_20" data-name="Mask Group 20" transform="translate(82 -107)" clip-path="url(#clip-path)">
      <g id="Group_4605" data-name="Group 4605" transform="translate(1134.412 123.397)">
        <g id="Group_4602" data-name="Group 4602">
          <path id="Path_3770" data-name="Path 3770" d="M586.655,228H571.5v1.443h1.6v8.9a2.168,2.168,0,0,0,2.165,2.165h7.618a2.167,2.167,0,0,0,2.165-2.165v-8.9h1.6Zm-3.047,10.344a.723.723,0,0,1-.722.722h-7.618a.722.722,0,0,1-.722-.722v-8.9h9.061Z" transform="translate(-571.5 -225.514)" fill="#d82424"/>
          <rect id="Rectangle_1199" data-name="Rectangle 1199" width="6.495" height="1.443" transform="translate(4.33)" fill="#d82424"/>
          <rect id="Rectangle_1200" data-name="Rectangle 1200" width="1.443" height="4.571" transform="translate(5.292 6.335)" fill="#d82424"/>
          <rect id="Rectangle_1201" data-name="Rectangle 1201" width="1.443" height="4.571" transform="translate(8.419 6.335)" fill="#d82424"/>
        </g>
      </g>
    </g>
  </g>
</svg>
