<svg xmlns="http://www.w3.org/2000/svg" xmlns:xlink="http://www.w3.org/1999/xlink" width="24" height="24" viewBox="0 0 24 24">
  <defs>
    <clipPath id="clip-path">
      <rect id="Rectangle_3413" data-name="Rectangle 3413" width="24" height="24" transform="translate(1778 21)" fill="none" stroke="#707070" stroke-width="1"/>
    </clipPath>
    <clipPath id="clip-path-2">
      <rect id="Rectangle_43" data-name="Rectangle 43" width="14.8" height="11.134" fill="none"/>
    </clipPath>
  </defs>
  <g id="Mask_Group_4678" data-name="Mask Group 4678" transform="translate(-1778 -21)" clip-path="url(#clip-path)">
    <g id="Group_30" data-name="Group 30" transform="translate(565.601 9.238)">
      <g id="Group_29" data-name="Group 29" transform="translate(1217 19)">
        <g id="Group_28" data-name="Group 28" clip-path="url(#clip-path-2)">
          <path id="Path_43" data-name="Path 43" d="M87.12,113.544a.592.592,0,0,1-.421-.175l-1.7-1.7a.965.965,0,0,1,0-1.365l1.705-1.7a.6.6,0,0,1,.846,0l.011.011a.6.6,0,0,1,0,.841l-.7.7s-.205.2-.173.2l1.573,0,1.283,0c.576,0,1.054,0,1.5,0a3.819,3.819,0,0,0,3.807-3.138c.026-.131.041-.261.054-.383a.263.263,0,0,1,.263-.236h.76a.265.265,0,0,1,.264.255c-.015.088-.029.176-.043.265-.03.193-.062.392-.1.583a5.065,5.065,0,0,1-4.069,3.834,7.141,7.141,0,0,1-1.049.085c-.488,0-1.023.006-1.683.006h-2.5l.855.854a.6.6,0,0,1,0,.847l-.052.051a.593.593,0,0,1-.418.171" transform="translate(-81.39 -102.409)" fill="#0a64f9"/>
          <path id="Path_44" data-name="Path 44" d="M.265,6.944A.265.265,0,0,1,0,6.661a4.323,4.323,0,0,1,.165-.949A5.058,5.058,0,0,1,3.855,2.082a4.875,4.875,0,0,1,1.337-.16H9.484l-.875-.875a.608.608,0,0,1,0-.859l.01-.01a.608.608,0,0,1,.859,0l1.689,1.689a.965.965,0,0,1,0,1.364L9.459,4.94a.6.6,0,0,1-.845,0L8.6,4.919a.6.6,0,0,1,0-.843L9.47,3.19H6.643c-.569,0-1.041,0-1.485,0A3.827,3.827,0,0,0,1.326,6.335c-.025.13-.04.26-.052.371a.264.264,0,0,1-.263.238Z" transform="translate(0)"/>
        </g>
      </g>
    </g>
  </g>
</svg>
